<svg width="20" height="20" viewBox="0 0 20 20" fill="none" xmlns="http://www.w3.org/2000/svg">
<path d="M2.54582 2.5392C3.27358 1.82027 4.45351 1.82027 5.18127 2.5392L17.3043 14.5153C18.0321 15.2342 18.0321 16.3998 17.3043 17.1188C16.5766 17.8377 15.3967 17.8377 14.6689 17.1188L2.54582 5.1427C1.81806 4.42376 1.81806 3.25814 2.54582 2.5392Z" fill="white"/>
<path d="M17.4542 2.88122C18.1819 3.60016 18.1819 4.76579 17.4542 5.48472L5.33111 17.4608C4.60335 18.1797 3.42341 18.1797 2.69566 17.4608C1.9679 16.7419 1.9679 15.5762 2.69566 14.8573L14.8187 2.88122C15.5465 2.16229 16.7264 2.16229 17.4542 2.88122Z" fill="white"/>
</svg>
