<svg width="21" height="20" viewBox="0 0 21 20" fill="none" xmlns="http://www.w3.org/2000/svg">
<g clip-path="url(#clip0_9_120)">
<path d="M18 1.25C15.8125 1.25 15.5 3.125 15.5 3.75C15.5 4.375 15.5 5 16.125 5C16.75 5 16.75 4.375 16.75 3.75C16.75 3.125 17.0625 2.5 18 2.5C18.9375 2.5 19.25 3.125 19.25 3.75C19.25 6.875 15.5 8.75 13.625 8.75H7.375C5.5 8.75 1.75 6.875 1.75 3.75C1.75 3.125 2.0625 2.5 3 2.5C3.9375 2.5 4.25 3.125 4.25 3.75C4.25 4.375 4.25 5 4.875 5C5.5 5 5.5 4.375 5.5 3.75C5.5 3.125 5.1875 1.25 3 1.25C1.4375 1.25 0.5 2.5 0.5 3.75C0.5 7.5 4.875 10 7.375 10H13.625C16.125 10 20.5 7.5 20.5 3.75C20.5 2.5 19.5625 1.25 18 1.25Z" fill="#809D00"/>
<path d="M16.125 16.25H4.875C4.53125 16.25 4.25 16.5312 4.25 16.875V19.375C4.25 19.7188 4.53125 20 4.875 20H16.125C16.4688 20 16.75 19.7188 16.75 19.375V16.875C16.75 16.5312 16.4688 16.25 16.125 16.25ZM13 18.75H8C7.65625 18.75 7.375 18.4688 7.375 18.125C7.375 17.7812 7.65625 17.5 8 17.5H13C13.3438 17.5 13.625 17.7812 13.625 18.125C13.625 18.4688 13.3438 18.75 13 18.75Z" fill="#CFFF00"/>
<path fill-rule="evenodd" clip-rule="evenodd" d="M13.625 15H7.375C7.375 15 5.5 15 5.5 16.25H15.5C15.5 15 13.625 15 13.625 15ZM9.25 13.125H11.75C12.0938 13.125 12.375 12.8438 12.375 12.5C12.375 12.1562 12.0938 11.875 11.75 11.875H9.25C8.90625 11.875 8.625 12.1562 8.625 12.5C8.625 12.8438 8.90625 13.125 9.25 13.125Z" fill="#809D00"/>
<path d="M16.125 1.25C16.125 0.625 16.125 0 15.5 0H5.5C4.875 0 4.875 0.625 4.875 1.25C4.875 11.875 9.25 10.625 9.25 11.875V13.125C9.25 14.375 7.375 13.75 7.375 15H13.625C13.625 13.75 11.75 14.375 11.75 13.125V11.875C11.75 10.625 16.125 11.875 16.125 1.25ZM10.5 6.30938L9.05313 7.35938C8.80938 7.5375 8.47812 7.29688 8.57188 7.00938L9.125 5.30937L7.67812 4.25938C7.43437 4.08125 7.55937 3.69375 7.8625 3.69375H9.65L10.2031 1.99375C10.2969 1.70625 10.7031 1.70625 10.7969 1.99375L11.35 3.69375H13.1375C13.4406 3.69375 13.5656 4.08125 13.3219 4.25938L11.875 5.30937L12.4281 7.00938C12.5219 7.29688 12.1906 7.5375 11.9469 7.35938L10.5 6.30938Z" fill="#B1D51A"/>
</g>
<defs>
<clipPath id="clip0_9_120">
<rect width="20" height="20" fill="white" transform="translate(0.5)"/>
</clipPath>
</defs>
</svg>
