<svg width="36" height="35" viewBox="0 0 36 35" fill="none" xmlns="http://www.w3.org/2000/svg">
<path d="M20.0689 16.114C20.6865 16.6975 21.2231 17.3625 21.6754 18.1124C22.8229 17.3897 24.1796 16.969 25.6343 16.969C26.2485 16.969 26.8459 17.0436 27.4196 17.1861C26.4983 15.9749 25.3913 15.0757 23.9906 14.4141C22.941 15.3777 21.5741 16.002 20.0723 16.114H20.0689ZM18.1586 24.491C18.1586 22.3908 19.0192 20.4908 20.403 19.1269C19.7145 17.9292 18.8066 16.9927 17.6558 16.2938C17.3857 16.1309 17.0449 16.1241 16.7715 16.287C15.7185 16.9147 14.49 17.2777 13.1771 17.2777C11.8642 17.2777 10.6526 16.9215 9.603 16.3006C9.32288 16.1343 8.97525 16.1445 8.70188 16.3209C6.10987 17.9699 4.5 21.071 4.5 24.62V29.3327C4.5 29.9197 4.9725 30.3947 5.553 30.3947H21.0038C19.2724 29.0172 18.1586 26.883 18.1586 24.4944V24.491ZM20.2511 10.1594C20.2511 11.6557 19.7887 13.0434 19.0057 14.1902C18.9754 14.2343 18.9653 14.2852 18.9754 14.3361C18.9923 14.4209 19.0631 14.4854 19.1475 14.4955C19.296 14.5091 19.4445 14.5159 19.593 14.5159C22.3099 14.5159 24.5171 12.2935 24.5171 9.56226C24.5171 6.83097 22.3065 4.60522 19.5896 4.60522C19.0226 4.60522 18.4624 4.70362 17.9291 4.89362C19.3534 6.1965 20.2511 8.07277 20.2511 10.1594Z" fill="black"/>
<path d="M18.6362 10.1757C18.6462 7.14197 16.2095 4.67448 13.1936 4.66442C10.1777 4.65437 7.72478 7.10556 7.71477 10.1393C7.70477 13.1731 10.1415 15.6405 13.1574 15.6506C16.1732 15.6606 18.6262 13.2095 18.6362 10.1757Z" fill="black"/>
<path d="M31.5 24.491C31.5 21.2372 28.8675 18.5908 25.6343 18.5908C22.401 18.5908 19.7685 21.2372 19.7685 24.491C19.7685 27.7448 22.401 30.3913 25.6343 30.3913C28.8675 30.3913 31.5 27.7448 31.5 24.491ZM22.2188 24.491C22.2188 24.0432 22.5799 23.6801 23.0254 23.6801H24.831V21.8615C24.831 21.4137 25.1921 21.0506 25.6376 21.0506C26.0831 21.0506 26.4443 21.4137 26.4443 21.8615V23.6801H28.2499C28.6954 23.6801 29.0565 24.0432 29.0565 24.491C29.0565 24.9389 28.6954 25.3019 28.2499 25.3019H26.4443V27.1205C26.4443 27.5684 26.0831 27.9314 25.6376 27.9314C25.1921 27.9314 24.831 27.5684 24.831 27.1205V25.3019H23.0254C22.5799 25.3019 22.2188 24.9389 22.2188 24.491Z" fill="black"/>
</svg>
