<svg width="21" height="20" viewBox="0 0 21 20" fill="none" xmlns="http://www.w3.org/2000/svg">
<g clip-path="url(#clip0_9_132)">
<path d="M2.25689 14.9801H2.25357C1.2851 14.9801 0.5 15.7649 0.5 16.7331V18.2437C0.5 19.2118 1.2851 19.9967 2.25357 19.9967H2.25689C3.22536 19.9967 4.01046 19.2118 4.01046 18.2437V16.7331C4.01046 15.7649 3.22536 14.9801 2.25689 14.9801Z" fill="#CFFF00"/>
<path d="M7.7534 11.8891H7.75008C6.78161 11.8891 5.99651 12.674 5.99651 13.6421V18.2437C5.99651 19.2118 6.78161 19.9967 7.75008 19.9967H7.7534C8.72188 19.9967 9.50697 19.2118 9.50697 18.2437V13.6421C9.50697 12.674 8.72188 11.8891 7.7534 11.8891Z" fill="#CFFF00"/>
<path d="M13.2499 9.52523H13.2466C12.2781 9.52523 11.493 10.3101 11.493 11.2782V18.247C11.493 19.2152 12.2781 20 13.2466 20H13.2499C14.2184 20 15.0035 19.2152 15.0035 18.247V11.2782C15.0035 10.3101 14.2184 9.52523 13.2499 9.52523Z" fill="#CFFF00"/>
<path d="M18.7464 7.06175H18.7431C17.7746 7.06175 16.9895 7.84659 16.9895 8.81474V18.2437C16.9895 19.2118 17.7746 19.9967 18.7431 19.9967H18.7464C19.7149 19.9967 20.5 19.2118 20.5 18.2437V8.81474C20.5 7.84659 19.7149 7.06175 18.7464 7.06175Z" fill="#CFFF00"/>
<path d="M12.1473 0.587649L13.5787 2.19456L8.93906 6.35126L7.26187 4.90704L0.5 11.4708L7.32498 7.31408L8.95234 8.7085L14.8341 3.61554L16.2821 5.22908L17.4844 0L12.1473 0.587649Z" fill="#CFFF00"/>
</g>
<defs>
<clipPath id="clip0_9_132">
<rect width="20" height="20" fill="white" transform="translate(0.5)"/>
</clipPath>
</defs>
</svg>
