<svg width="48" height="49" viewBox="0 0 48 49" fill="none" xmlns="http://www.w3.org/2000/svg">
<rect y="0.5" width="48" height="48" rx="8" fill="#2DA9E6"/>
<path d="M20.0988 33.5293L17.4414 26.0154L17.3956 25.9238L32.1027 16.8063L32.2402 17.0354C28.6054 22.7319 21.4183 34.2165 21.0151 34.2165C20.6119 34.2165 20.3279 34.0791 20.0988 33.5293Z" fill="#C9DAEB"/>
<path d="M20.4708 33.6077L20.8776 27.8022L26.1007 29.6807L21.3933 34.0491C21.0279 34.3882 20.436 34.105 20.4708 33.6077Z" fill="#A7C6D8"/>
<path d="M11.4462 24.0503L17.4414 26.0153L31.7687 17.2186C31.8625 17.161 31.9595 17.2874 31.8797 17.3632L20.8776 27.8022L30.5317 34.584C31.2196 35.0672 32.1782 34.7051 32.3747 33.8877L36.9766 14.7452C37.1649 13.962 36.4039 13.2853 35.648 13.5638L11.418 22.4928C10.6846 22.763 10.7035 23.8068 11.4462 24.0503Z" fill="white"/>
</svg>
