<svg width="21" height="17" viewBox="0 0 21 17" fill="none" xmlns="http://www.w3.org/2000/svg">
<path d="M10.6853 3.08292C8.1606 4.16541 3.55311 6.15113 0.470655 7.59367C-0.209377 7.91191 -0.135297 8.84633 0.581741 9.0769L3.9531 10.161C4.68434 10.3962 5.48632 10.3028 6.13858 9.90661L14.7502 4.67593C15.0098 4.51821 15.2863 4.85234 15.0693 5.06166L9.41487 10.5165C8.89258 11.0203 8.85284 11.7328 9.41157 12.1989C10.65 13.2319 12.9775 14.9592 15.0427 16.5027C16.3381 17.4709 18.0112 16.9783 18.3566 15.4329C19.1387 11.9337 20.2103 6.15403 20.9745 1.8468C21.183 0.671686 20.078 -0.290603 18.9038 0.0809583C16.3205 0.898329 12.9145 2.12714 10.6853 3.08292Z" fill="white"/>
</svg>
